<svg xmlns="http://www.w3.org/2000/svg" width="1908" height="742" viewBox="0 0 1908 742" fill="none">
<path fill-rule="evenodd" clip-rule="evenodd" d="M1887.34 6.63684C1877.75 41.0998 1848.22 72.4808 1805.07 94.0798C1780.33 106.465 1754.49 115.778 1710.97 127.99C1688.02 134.431 1677.24 138.499 1659.9 147.269C1616.85 169.048 1591.19 196.977 1578.12 236.291C1571.3 256.815 1570.57 261.973 1570.59 289.611C1570.61 317.676 1571.79 325.496 1579.58 349.253C1583.58 361.433 1594.9 385.711 1598.89 390.636C1600.55 392.677 1600.59 392.424 1599.92 384.438C1593.93 312.254 1616.22 262.897 1667.07 235.797C1684.53 226.491 1704.69 220.757 1741.52 214.619C1807.44 203.633 1845.9 187.61 1874.17 159.348C1899.1 134.432 1910.27 101.187 1907.06 61.4578C1905.49 41.9958 1901.52 24.7408 1894.99 9.06384C1890.16 -2.54116 1889.92 -2.61716 1887.34 6.63684ZM1841.57 217.726C1835.18 222.697 1820.86 229.71 1810.48 232.951C1793.45 238.271 1782.41 239.748 1753.07 240.638C1715.09 241.789 1698.62 244.921 1678.69 254.778C1661.97 263.045 1646.01 276.905 1638.24 289.903C1634.56 296.058 1628.67 309.45 1627.61 314.085C1626.95 316.923 1627.19 316.805 1632.75 311.525C1644.56 300.302 1660.78 291.399 1676.7 287.406C1684.39 285.474 1688.16 285.183 1705.07 285.211C1715.8 285.228 1730.42 285.855 1737.57 286.604C1758.45 288.789 1774.67 288.342 1786.43 285.259C1810.57 278.924 1830.02 262.544 1840.01 240.111C1841.91 235.846 1847.44 214.587 1846.79 214.026C1846.67 213.921 1844.32 215.586 1841.57 217.726ZM0.322021 465.861C0.639021 590.657 0.667979 592.249 2.82898 604.111C10.07 643.864 23.23 671.197 45.929 693.631C79.064 726.38 127.097 743.096 182.998 741.333C236.195 739.656 275.992 724.373 306.614 693.861C325.135 675.407 339.57 648.492 346.582 619.339C351.94 597.063 352.073 593.236 352.073 461.367V339.611H316.124H280.174L279.789 462.861C279.367 597.648 279.645 591.121 273.441 611.586C262.287 648.375 235.497 670.342 195.229 675.717C184.218 677.186 158.157 676.278 148.073 674.073C122.598 668.503 101.456 653.729 89.283 632.99C84.457 624.768 79.363 610.922 77.003 599.611C73.891 584.698 73.496 567.045 73.537 444.861L73.573 339.611H36.787H0L0.322021 465.861ZM399.935 345.861C403.587 351.726 412.938 366.95 456.59 438.111C466.374 454.061 485.943 486.011 500.076 509.111C514.209 532.211 531.691 560.688 538.923 572.393L552.073 593.675V664.643V735.611H588.573H625.073V665.382V595.152L640.764 569.132C674.313 513.5 772.333 353.301 779.75 341.982L781.319 339.586L743.994 339.849L706.67 340.111L691.758 364.111C683.556 377.311 664.359 408.361 649.098 433.111C600.254 512.321 592.95 524.094 592.136 524.929C591.697 525.378 587.845 519.978 583.576 512.929C579.307 505.879 564.225 481.436 550.061 458.611C526.01 419.854 491.159 363.426 481.041 346.861L476.613 339.611H436.327H396.042L399.935 345.861ZM908.878 362.88C902.996 375.657 887.649 408.836 874.775 436.611C842.666 505.88 819.489 556.219 804.741 588.72C790.938 619.139 763.699 678.454 748.18 711.885C742.621 723.86 738.073 734.103 738.073 734.647C738.073 735.285 751.438 735.542 775.808 735.373L813.544 735.111L815.931 730.111C817.243 727.361 825.494 708.911 834.266 689.111C843.038 669.311 851.283 650.749 852.589 647.861L854.962 642.611H957.277H1059.59L1068.08 661.211C1072.75 671.441 1082.21 692.253 1089.1 707.461L1101.64 735.111L1140.85 735.373C1162.42 735.516 1180.07 735.467 1180.07 735.262C1180.07 735.057 1174.41 722.79 1167.48 708C1140.94 651.317 1119.5 605.365 1110.85 586.611C1105.9 575.886 1096.57 555.636 1090.1 541.611C1069.28 496.425 1053.4 462.346 1025.81 403.611C1010.96 371.986 998.183 344.649 997.425 342.861L996.046 339.611L957.81 339.63L919.573 339.649L908.878 362.88ZM1234.07 537.561V735.611H1270.56H1307.06L1307.31 676.361L1307.57 617.111L1359.12 616.852L1410.67 616.593L1426.21 638.852C1460.96 688.619 1487.9 727.351 1490.54 731.361L1493.34 735.611H1533.81C1567.63 735.611 1574.2 735.386 1573.76 734.244C1573.47 733.492 1563.61 719.204 1551.85 702.494C1540.09 685.783 1525.94 665.586 1520.41 657.611C1514.88 649.636 1504 633.95 1496.22 622.753C1488.45 611.556 1482.34 601.993 1482.64 601.503C1482.94 601.012 1483.68 600.611 1484.27 600.611C1484.86 600.611 1489.54 598.623 1494.67 596.193C1520.03 584.178 1540.12 564.447 1552.83 539.069C1573.89 496.995 1571.04 441.575 1545.82 402.947C1527.67 375.147 1496.06 354.68 1457.57 345.798C1433.15 340.162 1435.16 340.256 1330.82 339.869L1234.07 339.51V537.561ZM1667.4 341.05C1658.68 343.777 1651.46 350.119 1648.93 357.275C1647.81 360.451 1647.57 393.277 1647.57 548.111V735.111H1684.07H1720.57L1720.82 537.361L1721.08 339.611L1696.32 339.678C1678.93 339.725 1670.33 340.133 1667.4 341.05ZM1413.38 401.667C1463.59 406.072 1490.92 432.322 1491.41 476.611C1491.57 491.89 1489.6 501.568 1483.88 513.534C1474.88 532.333 1453.95 546.893 1427.57 552.699C1418.1 554.783 1414.65 554.923 1362.32 555.342L1307.07 555.784V478.198V400.611L1354.32 400.621C1380.31 400.627 1406.88 401.098 1413.38 401.667ZM958.638 413.861C960.46 419.72 989.436 485.471 1029.04 573.611L1033.76 584.111L957.754 584.367C915.953 584.508 881.534 584.405 881.267 584.138C881 583.872 883.288 578.131 886.351 571.382C899.565 542.269 950.05 427.209 954.59 415.861C956.496 411.095 957.607 410.547 958.638 413.861Z" fill="#8474C4"></path>
</svg>