<svg xmlns="http://www.w3.org/2000/svg" width="1024" height="1024" viewBox="0 0 2048 2048" fill="none">
<defs>
<linearGradient id="g" x1="0" y1="0" x2="2048" y2="2048" gradientUnits="userSpaceOnUse">
<stop offset="0" stop-color="#9585D3"></stop>
<stop offset="0.55" stop-color="#8474C4"></stop>
<stop offset="1" stop-color="#6F5DB5"></stop>
</linearGradient>
</defs>
<rect width="2048" height="2048" rx="460" fill="url(#g)"></rect>
<path fill-rule="evenodd" clip-rule="evenodd" d="M1068.58 584.083C1063.3 600.125 1056.8 626.307 1054.31 641.5C1051.82 656.705 1051.85 691.429 1054.36 705C1062.19 747.387 1076.3 781.574 1100.78 817.5C1109.35 830.084 1113.74 835.52 1141.51 868C1169.33 900.53 1184.43 919.151 1193.58 932.185C1221.51 971.952 1236.94 1008.41 1244.41 1052.22C1247.2 1068.57 1249.5 1095.13 1248.67 1101.31L1248.11 1105.5L1249.66 1102C1252.05 1096.61 1257.74 1072.72 1259.46 1060.87C1261.44 1047.19 1261.44 1021.52 1259.46 1006.3C1255.66 977.098 1243.45 940.324 1227.81 911C1219.82 896.033 1210.47 880.812 1204.51 873.094C1201.49 869.192 1199.27 866 1199.57 866C1200.67 866 1212.24 874.27 1221.93 881.996C1263.46 915.079 1301.22 965.623 1322.78 1017C1342.84 1064.79 1353.22 1124.69 1350 1174C1345.13 1248.51 1321.12 1309.77 1275.41 1364.37C1231.47 1416.84 1169.18 1454.34 1100 1469.96C1075.28 1475.55 1060.49 1477.01 1029 1476.98L1006.5 1476.96L1018.5 1472.11C1040.99 1463.03 1051.32 1457.61 1067.69 1446.32C1114.48 1414.05 1148.1 1365.25 1160.92 1311C1173.97 1255.73 1168.13 1200.52 1144.05 1151.5C1129.92 1122.76 1116.46 1104.73 1064.48 1045C994.023 964.036 975.338 939.437 958.137 905C940.805 870.3 933.728 840.477 933.697 802C933.664 762.519 942.878 725.327 961.799 688.566C983.704 646.008 1020 604.713 1057.07 580.164C1069.91 571.668 1072.38 570.133 1072.75 570.45C1072.89 570.568 1071.01 576.703 1068.58 584.083ZM715.687 864.485C747.489 869.006 777.412 881.572 803.5 901.361C813.39 908.864 829.346 924.18 836.98 933.5C855.094 955.614 868.94 983.826 875.017 1011C880.026 1033.4 880.246 1037.24 881.051 1116.5C881.648 1175.28 882.135 1193.45 883.3 1200.5C890.882 1246.41 911.693 1283.07 943.536 1306.61C987.387 1339.03 1049.75 1338.89 1093.52 1306.27C1103.16 1299.08 1115.65 1286.17 1122.77 1276.06C1127.97 1268.65 1128 1268.63 1128 1272.08C1128 1283.9 1123.55 1304.86 1117.47 1321.65C1101.4 1366.06 1065.86 1406.55 1025 1427.02C991.534 1443.78 959.09 1450.67 926 1448.04C896.902 1445.73 870.867 1438.49 844.939 1425.52C805.281 1405.68 767.034 1369.05 740.938 1325.91C720.159 1291.56 707.742 1254.85 700.733 1207.04C698.636 1192.74 698.596 1189.78 698.269 1027.75L697.938 863L701.719 863.018C703.799 863.028 710.084 863.688 715.687 864.485Z" fill="#FCFCFB"></path>
</svg>